REM DIRINDEX 1\2,1\3,1\4,1\5
REM DIRNAME cjc044,folder01,folder02,folder03,folder04
TITLE ""
FILE "1800_162.mp3" MP3
  TRACK 01 AUDIO
    TITLE "2:cjc044_5283"
    INDEX 01 00:00:00
  TRACK 02 AUDIO
    TITLE "0:"
    INDEX 01 00:01:15
  TRACK 03 AUDIO
    TITLE "3:cjc044_5284"
    INDEX 01 00:01:64
  TRACK 04 AUDIO
    TITLE "0:"
    INDEX 01 00:03:59
  TRACK 05 AUDIO
    TITLE "4:cjc044_5285"
    INDEX 01 00:04:31
  TRACK 06 AUDIO
    TITLE "0:"
    INDEX 01 00:05:61
  TRACK 07 AUDIO
    TITLE "2:cjc044_5286"
    INDEX 01 00:07:33
  TRACK 08 AUDIO
    TITLE "0:"
    INDEX 01 00:09:06
  TRACK 09 AUDIO
    TITLE "3:cjc044_5287"
    INDEX 01 00:09:53
  TRACK 10 AUDIO
    TITLE "0:"
    INDEX 01 00:11:01
  TRACK 11 AUDIO
    TITLE "4:cjc044_5288"
    INDEX 01 00:11:48
  TRACK 12 AUDIO
    TITLE "0:"
    INDEX 01 00:13:22
  TRACK 13 AUDIO
    TITLE "2:cjc044_5289"
    INDEX 01 00:14:70
  TRACK 14 AUDIO
    TITLE "0:"
    INDEX 01 00:16:32
  TRACK 15 AUDIO
    TITLE "3:cjc044_5290"
    INDEX 01 00:17:04
  TRACK 16 AUDIO
    TITLE "0:"
    INDEX 01 00:18:11
  TRACK 17 AUDIO
    TITLE "4:cjc044_5291"
    INDEX 01 00:18:56
  TRACK 18 AUDIO
    TITLE "0:"
    INDEX 01 00:20:24
  TRACK 19 AUDIO
    TITLE "2:cjc044_5292"
    INDEX 01 00:21:74
  TRACK 20 AUDIO
    TITLE "0:"
    INDEX 01 00:23:12
  TRACK 21 AUDIO
    TITLE "3:cjc044_5293"
    INDEX 01 00:23:65
  TRACK 22 AUDIO
    TITLE "0:"
    INDEX 01 00:25:01
  TRACK 23 AUDIO
    TITLE "4:cjc044_5294"
    INDEX 01 00:25:48
  TRACK 24 AUDIO
    TITLE "0:"
    INDEX 01 00:26:58
  TRACK 25 AUDIO
    TITLE "2:cjc044_5295"
    INDEX 01 00:28:37
  TRACK 26 AUDIO
    TITLE "0:"
    INDEX 01 00:29:52
  TRACK 27 AUDIO
    TITLE "3:cjc044_5296"
    INDEX 01 00:30:26
  TRACK 28 AUDIO
    TITLE "0:"
    INDEX 01 00:31:49
  TRACK 29 AUDIO
    TITLE "4:cjc044_5297"
    INDEX 01 00:32:19
  TRACK 30 AUDIO
    TITLE "0:"
    INDEX 01 00:33:32
  TRACK 31 AUDIO
    TITLE "2:cjc044_5298"
    INDEX 01 00:35:08
  TRACK 32 AUDIO
    TITLE "0:"
    INDEX 01 00:36:33
  TRACK 33 AUDIO
    TITLE "3:cjc044_5299"
    INDEX 01 00:37:07
  TRACK 34 AUDIO
    TITLE "0:"
    INDEX 01 00:38:24
  TRACK 35 AUDIO
    TITLE "4:cjc044_5300"
    INDEX 01 00:38:73
  TRACK 36 AUDIO
    TITLE "0:"
    INDEX 01 00:40:30
  TRACK 37 AUDIO
    TITLE "2:cjc044_5301"
    INDEX 01 00:42:04
  TRACK 38 AUDIO
    TITLE "0:"
    INDEX 01 00:43:40
  TRACK 39 AUDIO
    TITLE "3:cjc044_5302"
    INDEX 01 00:44:14
  TRACK 40 AUDIO
    TITLE "0:"
    INDEX 01 00:45:33
  TRACK 41 AUDIO
    TITLE "4:cjc044_5303"
    INDEX 01 00:46:06
  TRACK 42 AUDIO
    TITLE "0:"
    INDEX 01 00:47:38
  TRACK 43 AUDIO
    TITLE "2:cjc044_5304"
    INDEX 01 00:49:18
  TRACK 44 AUDIO
    TITLE "0:"
    INDEX 01 00:50:33
  TRACK 45 AUDIO
    TITLE "3:cjc044_5305"
    INDEX 01 00:51:09
  TRACK 46 AUDIO
    TITLE "0:"
    INDEX 01 00:52:73
  TRACK 47 AUDIO
    TITLE "4:cjc044_5306"
    INDEX 01 00:53:49
  TRACK 48 AUDIO
    TITLE "0:"
    INDEX 01 00:54:66
  TRACK 49 AUDIO
    TITLE "2:cjc044_5307"
    INDEX 01 00:56:39
  TRACK 50 AUDIO
    TITLE "0:"
    INDEX 01 00:57:58
  TRACK 51 AUDIO
    TITLE "3:cjc044_5308"
    INDEX 01 00:58:30
  TRACK 52 AUDIO
    TITLE "0:"
    INDEX 01 00:59:20
  TRACK 53 AUDIO
    TITLE "4:cjc044_5309"
    INDEX 01 00:59:63
  TRACK 54 AUDIO
    TITLE "0:"
    INDEX 01 01:01:07
  TRACK 55 AUDIO
    TITLE "2:cjc044_5310"
    INDEX 01 01:02:61
  TRACK 56 AUDIO
    TITLE "0:"
    INDEX 01 01:04:17
  TRACK 57 AUDIO
    TITLE "3:cjc044_5311"
    INDEX 01 01:04:66
  TRACK 58 AUDIO
    TITLE "0:"
    INDEX 01 01:05:58
  TRACK 59 AUDIO
    TITLE "4:cjc044_5312"
    INDEX 01 01:06:32
  TRACK 60 AUDIO
    TITLE "0:"
    INDEX 01 01:07:64
  TRACK 61 AUDIO
    TITLE "2:cjc044_5313"
    INDEX 01 01:09:40
  TRACK 62 AUDIO
    TITLE "0:"
    INDEX 01 01:10:69
  TRACK 63 AUDIO
    TITLE "3:cjc044_5314"
    INDEX 01 01:11:41
  TRACK 64 AUDIO
    TITLE "0:"
    INDEX 01 01:12:56
  TRACK 65 AUDIO
    TITLE "4:cjc044_5315"
    INDEX 01 01:13:24
  TRACK 66 AUDIO
    TITLE "0:"
    INDEX 01 01:14:55
  TRACK 67 AUDIO
    TITLE "2:cjc044_5316"
    INDEX 01 01:16:26
  TRACK 68 AUDIO
    TITLE "0:"
    INDEX 01 01:17:63
  TRACK 69 AUDIO
    TITLE "3:cjc044_5317"
    INDEX 01 01:18:37
  TRACK 70 AUDIO
    TITLE "0:"
    INDEX 01 01:19:56
  TRACK 71 AUDIO
    TITLE "4:cjc044_5318"
    INDEX 01 01:20:26
  TRACK 72 AUDIO
    TITLE "0:"
    INDEX 01 01:21:65
  TRACK 73 AUDIO
    TITLE "2:cjc044_5319"
    INDEX 01 01:23:40
  TRACK 74 AUDIO
    TITLE "0:"
    INDEX 01 01:24:63
  TRACK 75 AUDIO
    TITLE "3:cjc044_5320"
    INDEX 01 01:25:35
  TRACK 76 AUDIO
    TITLE "0:"
    INDEX 01 01:27:36
  TRACK 77 AUDIO
    TITLE "4:cjc044_5321"
    INDEX 01 01:28:06
  TRACK 78 AUDIO
    TITLE "0:"
    INDEX 01 01:29:31
  TRACK 79 AUDIO
    TITLE "2:cjc044_5322"
    INDEX 01 01:31:04
  TRACK 80 AUDIO
    TITLE "0:"
    INDEX 01 01:32:33
  TRACK 81 AUDIO
    TITLE "3:cjc044_5323"
    INDEX 01 01:33:01
  TRACK 82 AUDIO
    TITLE "0:"
    INDEX 01 01:34:26
  TRACK 83 AUDIO
    TITLE "4:cjc044_5324"
    INDEX 01 01:34:73
  TRACK 84 AUDIO
    TITLE "0:"
    INDEX 01 01:36:27
  TRACK 85 AUDIO
    TITLE "2:cjc044_5325"
    INDEX 01 01:37:73
  TRACK 86 AUDIO
    TITLE "0:"
    INDEX 01 01:39:10
  TRACK 87 AUDIO
    TITLE "3:cjc044_5326"
    INDEX 01 01:39:61
  TRACK 88 AUDIO
    TITLE "0:"
    INDEX 01 01:41:03
  TRACK 89 AUDIO
    TITLE "4:cjc044_5327"
    INDEX 01 01:41:52
  TRACK 90 AUDIO
    TITLE "0:"
    INDEX 01 01:42:67
  TRACK 91 AUDIO
    TITLE "2:cjc044_5328"
    INDEX 01 01:44:40
  TRACK 92 AUDIO
    TITLE "0:"
    INDEX 01 01:45:61
  TRACK 93 AUDIO
    TITLE "3:cjc044_5329"
    INDEX 01 01:46:31
  TRACK 94 AUDIO
    TITLE "0:"
    INDEX 01 01:49:57
  TRACK 95 AUDIO
    TITLE "4:cjc044_5330"
    INDEX 01 01:50:27
  TRACK 96 AUDIO
    TITLE "0:"
    INDEX 01 01:51:48
  TRACK 97 AUDIO
    TITLE "2:cjc044_5331"
    INDEX 01 01:53:18
  TRACK 98 AUDIO
    TITLE "0:"
    INDEX 01 01:54:60
  TRACK 99 AUDIO
    TITLE "3:cjc044_5332"
    INDEX 01 01:55:32
  TRACK 100 AUDIO
    TITLE "0:"
    INDEX 01 01:56:55
  TRACK 101 AUDIO
    TITLE "4:cjc044_5333"
    INDEX 01 01:57:25
  TRACK 102 AUDIO
    TITLE "0:"
    INDEX 01 01:58:70
